<?xml version="1.0" encoding="UTF-8" standalone="no"?>
<!-- Created with Inkscape (http://www.inkscape.org/) -->

<svg
   width="183.00934mm"
   height="189.00964mm"
   viewBox="0 0 183.00934 189.00964"
   version="1.1"
   id="svg5"
   inkscape:version="1.1 (c68e22c387, 2021-05-23)"
   sodipodi:docname="witopedia.svg"
   xmlns:inkscape="http://www.inkscape.org/namespaces/inkscape"
   xmlns:sodipodi="http://sodipodi.sourceforge.net/DTD/sodipodi-0.dtd"
   xmlns="http://www.w3.org/2000/svg"
   xmlns:svg="http://www.w3.org/2000/svg">
  <sodipodi:namedview
     id="namedview7"
     pagecolor="#ffffff"
     bordercolor="#666666"
     borderopacity="1.0"
     inkscape:pageshadow="2"
     inkscape:pageopacity="0.0"
     inkscape:pagecheckerboard="0"
     inkscape:document-units="mm"
     showgrid="false"
     inkscape:zoom="0.35275978"
     inkscape:cx="970.91567"
     inkscape:cy="547.11453"
     inkscape:window-width="1366"
     inkscape:window-height="746"
     inkscape:window-x="760"
     inkscape:window-y="-8"
     inkscape:window-maximized="1"
     inkscape:current-layer="layer1" />
  <defs
     id="defs2" />
  <g
     inkscape:label="Layer 1"
     inkscape:groupmode="layer"
     id="layer1"
     transform="translate(-17.578758,-51.002594)">
    <rect
       style="fill:#ffcc00;stroke:none;stroke-width:0.197615;stroke-opacity:1"
       id="rect9905"
       width="183.00934"
       height="189.00964"
       x="17.578758"
       y="51.002594"
       ry="13.094043" />
    <path
       id="path3151-4-1-6"
       style="fill:#552200;fill-rule:evenodd;stroke:none;stroke-width:0.778372;stroke-opacity:1"
       d="m 109.08239,119.29751 a 49.129171,50.739964 0 0 0 -49.127976,50.74043 49.129171,50.739964 0 0 0 0.07033,1.67938 H 76.03418 a 33.133348,34.219687 0 0 1 -0.08539,-1.67938 33.133348,34.219687 0 0 1 33.13351,-34.21986 33.133348,34.219687 0 0 1 33.13354,34.21986 33.133348,34.219687 0 0 1 -0.0434,1.67938 h 16.01101 a 49.129171,50.739964 0 0 0 0.029,-1.67938 49.129171,50.739964 0 0 0 -49.12957,-50.74043 z" />
  </g>
</svg>
